#N canvas 355 23 1006 789 10;
#X declare -lib ceammc;
#X obj 105 135 bng 15 250 50 0 \$0-randomize empty RANDOMIZE 17 7 0
10 -262144 -1 -1;
#X obj 106 155 ui.menu @size 200 17 @receive "(null)" @send "(null)"
@pinned 0 @presetname "ui.menu.0" @background_color 0.93 0.93 0.93
1 @border_color 0.6 0.6 0.6 1 @label_color 0 0 0 1 @text_color 0 0
0 1 @active_color 0 0.75 1 1 @fontname "Helvetica" @fontweight "normal"
@fontslant "roman" @fontsize 12 @label "(null)" @label_inner 0 @label_side
"top" @label_align "left" @label_valign "center" @label_margins 0 0
@items "kicks" "open_hats" @max_length 34;
#X obj 336 14 system.shell;
#X msg 336 -129 %CEAMMC%;
#X obj 336 -83 expand_env @any;
#X obj 336 -54 symbol;
#X obj 336 43 str->sym;
#X msg 212 69 append \$1;
#X msg 101 68 clear;
#X msg 336 -25 cd \$1/../../automatonism_3.1_extended/random_sampler/
&& ls -d * && tr -d "/t";
#X obj 105 117 bng 15 250 50 0 empty \$0-trig-r empty 17 7 0 10 -262144
-1 -1;
#X obj 336 -160 loadbang;
#N canvas 125 40 915 645 open_file 1;
#X obj 83 467 soundfiler;
#X floatatom 83 505 8 0 0 0 - - -;
#X obj 228 259 system.shell;
#X msg 83 96 %CEAMMC%;
#X obj 83 125 expand_env @any;
#X obj 83 154 symbol;
#X obj 83 282 str->sym;
#X obj 83 40 inlet;
#X msg 83 431 read -resize \$1 \$2 \$3;
#X obj 83 568 outlet;
#X obj 20 154 symbol \$1;
#X obj 83 313 t a b b;
#X obj 112 347 symbol \$0-sample-L;
#X obj 242 346 symbol \$0-sample-R;
#X obj 83 404 pack s s s;
#X obj 83 185 list;
#X msg 228 222 cd \$2/../../automatonism_3.1_extended/random_sampler/\$1
&& ls -d $PWD/* | head -$((RANDOM%$(ls | wc -w)+1)) | tail -1;
#X msg -157 221 cd \$2/../../automatonism_3.1_extended/random_sampler/\$1
&& ls | head -$((RANDOM%$(ls | wc -w)+1)) | tail -1;
#X obj -157 261 system.shell;
#X obj -157 290 str->sym;
#X symbolatom -157 327 25 0 0 0 - - #0-sample-name;
#X connect 0 0 1 0;
#X connect 1 0 9 0;
#X connect 2 0 6 0;
#X connect 3 0 4 0;
#X connect 4 0 5 0;
#X connect 5 0 15 1;
#X connect 6 0 11 0;
#X connect 7 0 3 0;
#X connect 7 0 10 0;
#X connect 8 0 0 0;
#X connect 10 0 15 0;
#X connect 11 0 14 0;
#X connect 11 1 12 0;
#X connect 11 2 13 0;
#X connect 12 0 14 1;
#X connect 13 0 14 2;
#X connect 14 0 8 0;
#X connect 15 0 16 0;
#X connect 15 0 17 0;
#X connect 16 0 2 0;
#X connect 17 0 18 0;
#X connect 18 0 19 0;
#X connect 19 0 20 0;
#X restore 79 380 pd open_file;
#X floatatom 79 423 20 0 0 0 - - -;
#X obj 79 580 /;
#X obj 79 526 t b f;
#X text -70 510 Calculate freq based;
#X text -46 527 off of sample size;
#X obj 79 605 s \$0-normal-freq;
#X obj 111 483 s \$0-file-size;
#X obj 79 445 t f f;
#X text -33 610 Create an array without the gui!;
#X obj -41 455 r \$0-sample-rate-s;
#X obj 79 558 f 44100;
#X obj -41 477 pipe 5;
#X obj 2 637 array define \$0-sample-L;
#X obj 1 657 array define \$0-sample-R;
#X obj 103 347 cnv 5 5 5 empty empty OUT_L 0 0 0 8 -262144 -66577 0
;
#X obj 110 223 hsl 128 15 -2 2 0 1 \$0-sampler-pitch-s \$0-sampler-pitch-r
PITCH 133 7 0 10 -262144 -1 -1 9525 1;
#X obj 110 238 hsl 128 15 0 127 0 1 \$0-sampler-length-s \$0-sampler-length-r
LENGTH 133 7 0 10 -262144 -1 -1 12700 1;
#X obj 110 253 hsl 128 15 0 127 0 0 \$0-sampler-start-s \$0-sampler-start-r
START 133 7 0 10 -262144 -1 -1 0 1;
#X obj 200 346 cnv 5 5 5 empty empty OUT_R 0 0 0 8 -262144 -66577 0
;
#X obj 137 203 bng 15 250 50 0 \$0-pitch-presets-1-s \$0-pitch-presets-1-r
-1 0 -6 0 10 -204800 -1 -1;
#X obj 152 203 bng 15 250 50 0 \$0-pitch-presets-2-s \$0-pitch-presets-1-r
empty -5 -6 0 10 -204800 -1 -1;
#X obj 167 203 bng 15 250 50 0 \$0-pitch-presets-3-s \$0-pitch-presets-1-r
0 5 -6 0 10 -204800 -1 -1;
#X obj 182 203 bng 15 250 50 0 \$0-pitch-presets-4-s \$0-pitch-presets-1-r
empty -1 -6 0 10 -204800 -1 -1;
#X obj 197 203 bng 15 250 50 0 \$0-pitch-presets-5-s \$0-pitch-presets-1-r
1 5 -6 0 10 -204800 -1 -1;
#X obj 212 203 bng 15 250 50 0 \$0-pitch-presets-5-s \$0-pitch-presets-1-r
empty 30 7 0 10 -204800 -1 -1;
#X obj 122 203 bng 15 250 50 0 \$0-pitch-presets--2-s \$0-pitch-presets--2-s
empty 0 -6 0 10 -204800 -1 -1;
#X obj 227 203 bng 15 250 50 0 \$0-pitch-presets-5-s \$0-pitch-presets-1-r
2 5 -6 0 10 -204800 -1 -1;
#X obj 107 203 bng 15 250 50 0 \$0-pitch-presets-1-s \$0-pitch-presets-1-r
-2 0 -6 0 10 -204800 -1 -1;
#X obj 107 322 nbx 6 14 -1e+37 1e+37 0 0 \$0-sample-rate-s \$0-sample-rate-r
SAMPLE_RATE 65 7 0 10 -262144 -1 -1 44100 256;
#X obj 278 346 cnv 5 5 5 empty empty END_TRIG 0 0 0 8 -262144 -226533
0;
#X obj 286 323 bng 15 50 50 0 empty \$0-end-trig-r empty 17 7 0 10
-262144 -226533 -1;
#X obj 564 134 s \$0-bang;
#X obj 722 92 inlet~ PITCH;
#X obj 722 114 throw~ \$0-sampler-PITCH;
#X obj 897 92 inlet~ LENGTH;
#X obj 907 125 throw~ \$0-sampler-LENGTH;
#X obj 1086 114 throw~ \$0-sample-START;
#X obj 1086 92 inlet~ START;
#X obj 898 147 throw~ \$0-sampler-LENGTH2;
#X text 361 136 Bang resets the phasor~ to 0;
#X obj 564 112 threshold~ 0.99 0 1 0;
#X obj 564 90 inlet~ trig;
#X obj 495 108 loadbang;
#N canvas 591 461 450 351 apply-pitch-presets 0;
#X obj 191 232 f;
#X obj 191 255 s \$0-sampler-pitch-r;
#X obj 48 43 inlet;
#X obj 87 43 inlet;
#X obj 126 43 inlet;
#X obj 165 43 inlet;
#X obj 204 43 inlet;
#X obj 243 43 inlet;
#X obj 282 43 inlet;
#X obj 321 43 inlet;
#X obj 360 43 inlet;
#X msg 48 135 -2;
#X msg 87 110 -1.5;
#X msg 126 135 -1;
#X msg 165 109 -0.5;
#X msg 204 134 0;
#X msg 243 109 0.5;
#X msg 282 133 1;
#X msg 321 110 1.5;
#X msg 360 135 2;
#X connect 0 0 1 0;
#X connect 2 0 11 0;
#X connect 3 0 12 0;
#X connect 4 0 13 0;
#X connect 5 0 14 0;
#X connect 6 0 15 0;
#X connect 7 0 16 0;
#X connect 8 0 17 0;
#X connect 9 0 18 0;
#X connect 10 0 19 0;
#X connect 11 0 0 0;
#X connect 12 0 0 0;
#X connect 13 0 0 0;
#X connect 14 0 0 0;
#X connect 15 0 0 0;
#X connect 16 0 0 0;
#X connect 17 0 0 0;
#X connect 18 0 0 0;
#X connect 19 0 0 0;
#X restore 351 218 pd apply-pitch-presets;
#X obj 335 266 loadbang;
#X msg 335 288 44100;
#X obj 335 310 s \$0-sample-rate-r;
#X obj 634 134 s \$0-trig-r;
#X text 386 288 <-- DEFAULT SAMPLE RATE;
#X obj 459 1181 *~;
#X obj 459 1038 *~;
#X obj 458 1095 +~;
#X obj 459 839 phasor~;
#X text 299 1091 Sample start position;
#X text 349 1035 Sample length;
#X text 336 676 Freq adjustment;
#X text 307 497 Adjust freq for;
#X text 283 514 new sample length;
#X obj 457 1305 outlet~;
#X obj 460 955 *~;
#X text 319 807 Loop or one shot;
#X text 255 1182 Scale to length of sample;
#X obj 459 1123 wrap~;
#X obj 476 572 r \$0-normal-freq;
#X obj 477 1154 r \$0-file-size;
#X obj 525 1304 outlet~;
#X obj 459 702 *~;
#X obj 459 647 *~;
#X obj 476 621 line~;
#X text 357 703 Sample pitch;
#N canvas 693 365 353 379 sample-length 0;
#X obj 30 21 r \$0-sampler-length-s;
#X obj 30 87 line~;
#X obj 30 282 clip~ 0 1;
#X obj 47 119 catch~ \$0-sampler-LENGTH;
#X obj 29 260 +~;
#X obj 65 144 r \$0-sampler-length-att-s;
#X obj 47 233 *~;
#X obj 65 210 line~;
#X obj 30 315 outlet~;
#X obj 65 166 / 127;
#X obj 30 43 / 127;
#X obj 65 188 pack 0 50;
#X obj 30 65 pack 0 50;
#X connect 0 0 10 0;
#X connect 1 0 4 0;
#X connect 2 0 8 0;
#X connect 3 0 6 0;
#X connect 4 0 2 0;
#X connect 5 0 9 0;
#X connect 6 0 4 1;
#X connect 7 0 6 1;
#X connect 9 0 11 0;
#X connect 10 0 12 0;
#X connect 11 0 7 0;
#X connect 12 0 1 0;
#X restore 477 496 pd sample-length;
#N canvas 186 336 428 589 sample-pitch 0;
#X obj 47 27 r \$0-sampler-pitch-s;
#X obj 47 123 line~;
#X obj 46 364 +~;
#X obj 65 175 catch~ \$0-sampler-PITCH;
#X obj 45 457 outlet~;
#X obj 65 332 *~;
#X obj 82 309 line~;
#X obj 82 236 r \$0-sampler-pitch-att-s;
#X obj 82 263 / 127;
#X obj 93 399 snapshot~;
#X obj 109 374 metro 100;
#X floatatom 93 421 10 0 0 0 - - -;
#X obj 109 351 tgl 15 0 empty empty empty 17 7 0 10 -262144 -1 -1 0
1;
#X obj 65 197 *~ 127;
#X obj 82 287 pack 0 50;
#X obj 47 101 pack 0 50;
#X connect 0 0 15 0;
#X connect 1 0 2 0;
#X connect 2 0 4 0;
#X connect 2 0 9 0;
#X connect 3 0 13 0;
#X connect 5 0 2 1;
#X connect 6 0 5 1;
#X connect 7 0 8 0;
#X connect 8 0 14 0;
#X connect 9 0 11 0;
#X connect 10 0 9 0;
#X connect 12 0 10 0;
#X connect 13 0 5 0;
#X connect 14 0 6 0;
#X connect 15 0 1 0;
#X restore 478 676 pd sample-pitch;
#X obj 424 516 sig~ 1;
#X obj 460 543 /~;
#N canvas 693 365 353 379 sample-length2 0;
#X obj 23 11 r \$0-sampler-length-s;
#X obj 23 77 line~;
#X obj 23 282 clip~ 0 1;
#X obj 22 260 +~;
#X obj 58 146 r \$0-sampler-length-att-s;
#X obj 40 233 *~;
#X obj 58 210 line~;
#X obj 23 315 outlet~;
#X obj 40 121 catch~ \$0-sampler-LENGTH2;
#X obj 58 167 / 127;
#X obj 23 34 / 127;
#X obj 58 188 pack 0 50;
#X obj 23 55 pack 0 50;
#X connect 0 0 10 0;
#X connect 1 0 3 0;
#X connect 2 0 7 0;
#X connect 3 0 2 0;
#X connect 4 0 9 0;
#X connect 5 0 3 1;
#X connect 6 0 5 1;
#X connect 8 0 5 0;
#X connect 9 0 11 0;
#X connect 10 0 12 0;
#X connect 11 0 6 0;
#X connect 12 0 1 0;
#X restore 478 1005 pd sample-length2;
#N canvas 786 478 394 334 sample-start 0;
#X obj 24 18 r \$0-sampler-start-s;
#X obj 24 89 line~;
#X obj 24 241 +~;
#X obj 24 263 clip~ 0 1;
#X obj 42 115 catch~ \$0-sample-START;
#X obj 42 207 *~;
#X obj 60 140 r \$0-sampler-start-att-s;
#X obj 24 285 outlet~;
#X obj 60 161 / 127;
#X obj 24 44 / 127;
#X obj 24 67 pack 0 50;
#X connect 0 0 9 0;
#X connect 1 0 2 0;
#X connect 2 0 3 0;
#X connect 3 0 7 0;
#X connect 4 0 5 0;
#X connect 5 0 2 1;
#X connect 6 0 8 0;
#X connect 8 0 5 1;
#X connect 9 0 10 0;
#X connect 10 0 1 0;
#X restore 477 1067 pd sample-start;
#X obj 458 1211 tabread4~ \$0-sample-L;
#X obj 526 1240 tabread4~ \$0-sample-R;
#X obj 515 705 r \$0-bang;
#X msg 515 793 0;
#X obj 638 797 sel 1;
#X msg 638 824 1;
#X text 307 899 Detect end of sample;
#X obj 596 728 t f f;
#N canvas 65 78 809 734 detect-end-of-sample 0;
#X obj 128 641 outlet bang-on-end;
#X msg 28 515 0;
#X obj 27 617 spigot;
#X obj 27 641 outlet;
#X obj 98 20 inlet~ pitch;
#X msg 98 100 1;
#X obj 98 126 tgl 15 0 empty empty empty 17 7 0 10 -262144 -1 -1 1
1;
#X msg 298 97 0;
#X obj 98 73 threshold~ 0.0001 0 -0.0001 0;
#X obj 98 168 == 0;
#X obj 73 197 *~ 1;
#X obj 27 197 *~ 1;
#X text 250 270 Reversed;
#X text 250 246 Normal;
#X text 359 35 Bang when the sample has ended. We detect the end of
the sample with [threshold~ 0.9999] \, however \, when the sample is
played in reverse \, it would trigger this instantly. We need to detect
when the sample is playing in reverse so that we can use [threshold~
0.0001] to bang the end of the sample. We detect if the sample is reversed
by checking if the pitch of the phasor~ is negative.;
#X text 367 192 If loop is set to off \, we also need to mute the audio
from the phasor when the sample has ended.;
#X obj 73 401 t b b;
#X obj 27 401 t b b;
#X obj 43 424 bng 15 250 50 0 empty empty empty 17 7 0 10 -262144 -1
-1;
#X obj 112 423 bng 15 250 50 0 empty empty empty 17 7 0 10 -262144
-1 -1;
#X obj 27 352 spigot;
#X obj 73 373 spigot;
#X obj 112 318 r \$0-required-hack;
#X obj 28 579 t f f;
#X obj 128 619 spigot;
#X obj 195 534 sel 1;
#X msg 195 556 1;
#X obj 195 488 f;
#X floatatom 202 512 5 0 0 0 - - -;
#X obj 145 526 == 0;
#X obj 246 510 bng 15 250 50 0 empty empty empty 17 7 0 10 -262144
-1 -1;
#X obj 150 422 sel 0;
#X obj 162 443 bng 15 250 50 0 empty empty empty 17 7 0 10 -262144
-1 -1;
#X text 356 415 We also piggy back off of \$0-required-hack to get
a bang whenver a new trigger is recieved \, so we can reset the spigots
at the bottom.;
#X text 253 318 <-------------;
#X obj 195 19 inlet loop-on-off;
#X obj 26 18 inlet~;
#X floatatom 145 548 5 0 0 0 - - -;
#X text 359 503 This is a mess of spigots \, but since we are using
a phasor~ object \, we are constanly cycling from 0 to 1 (or 1 to 0
if reversed). When loop is set to OFF \, we need to send the bang -on-end
\, send a 0 out of the left outlet \, then finally turn off both the
left and right outlet. The phasor~ will keep cycling \, but the patch
won't be outputting anything anymore.;
#X text 360 594 When loop is ON \, we need to turn both outlet back
on \, and disable them from being turned off. This is controlled using
spigots after the 0 message box.;
#X text 253 418 <-------------;
#X text 253 538 <-------------;
#X text 356 319 When the phase is reset to 0 this causes the threshold~
to trigger if the sample is being played in reverse. I tried setting
the phasor~ to 1 if the sample is in reverse \, but it still had this
problem. All this does is turn off the theshold~ outputs when the phasor~
is being reset \, then 5ms later it turns them back on.;
#X obj 28 553 spigot;
#X obj 67 535 bng 15 250 50 0 empty empty empty 17 7 0 10 -262144 -1
-1;
#X obj 27 240 threshold~ 0.999 0 0.5 0;
#X obj 73 271 threshold~ 0.001 0 0.5 0;
#X connect 1 0 43 0;
#X connect 1 0 44 0;
#X connect 2 0 3 0;
#X connect 4 0 8 0;
#X connect 5 0 6 0;
#X connect 6 0 9 0;
#X connect 6 0 11 1;
#X connect 7 0 6 0;
#X connect 8 0 5 0;
#X connect 8 1 7 0;
#X connect 9 0 10 1;
#X connect 10 0 46 0;
#X connect 11 0 45 0;
#X connect 16 0 1 0;
#X connect 16 1 19 0;
#X connect 16 1 24 0;
#X connect 17 0 1 0;
#X connect 17 1 18 0;
#X connect 17 1 24 0;
#X connect 20 0 17 0;
#X connect 21 0 16 0;
#X connect 22 0 20 1;
#X connect 22 0 21 1;
#X connect 22 0 31 0;
#X connect 23 0 24 1;
#X connect 23 0 2 1;
#X connect 23 1 2 0;
#X connect 24 0 0 0;
#X connect 25 0 26 0;
#X connect 26 0 24 1;
#X connect 26 0 2 1;
#X connect 27 0 25 0;
#X connect 27 0 28 0;
#X connect 27 0 29 0;
#X connect 27 0 30 0;
#X connect 29 0 37 0;
#X connect 29 0 43 1;
#X connect 31 0 26 0;
#X connect 31 0 32 0;
#X connect 35 0 27 0;
#X connect 36 0 11 0;
#X connect 36 0 10 0;
#X connect 43 0 23 0;
#X connect 45 0 20 0;
#X connect 46 0 21 0;
#X restore 478 905 pd detect-end-of-sample;
#X obj 721 839 s \$0-required-hack;
#X obj 515 749 t b b b;
#X msg 746 792 0;
#X msg 702 813 1;
#X text 683 764 Used in detect-end-of-sample;
#X obj 702 793 del 5;
#X obj 515 727 t b b;
#X text 249 1125 Wrap around if we go past end;
#X text 287 1233 Finally play the sample;
#X obj 596 706 r \$0-loop-on-off-s;
#X msg 636 928 1 0 \, 0 1 1;
#X obj 636 950 vline~;
#X obj 636 972 outlet~;
#X text 695 973 Output trig on end;
#X obj 601 934 bng 15 250 50 0 empty empty empty 17 7 0 10 -262144
-1 -1;
#X obj 476 599 pack 0 1;
#X obj 655 908 s \$0-end-trig-r;
#X obj 231 108 cnv 5 5 5 empty empty LENGTH 0 0 0 8 -262144 -120682
0;
#X obj 293 108 cnv 5 5 5 empty empty START 0 0 0 8 -262144 -120682
0;
#X obj 103 108 cnv 5 5 5 empty empty TRIG 0 0 0 8 -262144 -226533 0
;
#X obj 162 108 cnv 5 5 5 empty empty PITCH 0 0 0 8 -262144 -120682
0;
#X obj 217 -160 r \$0-refresh-list;
#X obj -44 -158 declare -lib ceammc;
#X obj 238 117 tgl 15 1 \$0-loop-on-off-s \$0-loop-on-off-r LOOP 18
7 0 10 -204800 -1 -1 0 1;
#X obj 436 -113 s \$0-clear-folder;
#X obj 336 71 s \$0-folder-name;
#X obj 212 38 r \$0-folder-name;
#X obj 101 38 r \$0-clear-folder;
#X obj 24 261 list.at 1;
#N canvas 825 246 615 566 parameter-nudging-system 0;
#N canvas 0 50 484 497 param-nudge 0;
#X obj 124 234 random;
#X obj 232 335 f;
#X obj 232 368 +;
#X obj 257 166 random 2;
#X obj 124 275 t f f;
#X obj 124 351 t b f;
#X obj 124 297 *;
#X obj 257 188 sel 0 1;
#X msg 257 280 -1;
#X msg 335 280 1;
#X obj 124 149 t b b b;
#X obj 124 123 r NUDGE!;
#X obj 157 193 r NUDGE-RANGE;
#X obj 247 308 inlet;
#X obj 232 397 outlet;
#X connect 0 0 4 0;
#X connect 1 0 2 0;
#X connect 2 0 14 0;
#X connect 3 0 7 0;
#X connect 4 0 6 0;
#X connect 5 0 2 0;
#X connect 5 1 2 1;
#X connect 6 0 5 0;
#X connect 7 0 8 0;
#X connect 7 1 9 0;
#X connect 8 0 6 1;
#X connect 9 0 6 1;
#X connect 10 0 0 0;
#X connect 10 1 1 0;
#X connect 10 2 3 0;
#X connect 11 0 10 0;
#X connect 12 0 0 1;
#X connect 13 0 1 1;
#X restore 23 125 pd param-nudge;
#N canvas 472 60 484 497 param-nudge 0;
#X obj 124 234 random;
#X obj 232 335 f;
#X obj 232 368 +;
#X obj 257 166 random 2;
#X obj 124 275 t f f;
#X obj 124 351 t b f;
#X obj 124 297 *;
#X obj 257 188 sel 0 1;
#X msg 257 280 -1;
#X msg 335 280 1;
#X obj 124 149 t b b b;
#X obj 124 123 r NUDGE!;
#X obj 157 193 r NUDGE-RANGE;
#X obj 247 308 inlet;
#X obj 232 397 outlet;
#X connect 0 0 4 0;
#X connect 1 0 2 0;
#X connect 2 0 14 0;
#X connect 3 0 7 0;
#X connect 4 0 6 0;
#X connect 5 0 2 0;
#X connect 5 1 2 1;
#X connect 6 0 5 0;
#X connect 7 0 8 0;
#X connect 7 1 9 0;
#X connect 8 0 6 1;
#X connect 9 0 6 1;
#X connect 10 0 0 0;
#X connect 10 1 1 0;
#X connect 10 2 3 0;
#X connect 11 0 10 0;
#X connect 12 0 0 1;
#X connect 13 0 1 1;
#X restore 211 45 pd param-nudge;
#N canvas 0 50 484 497 param-nudge 0;
#X obj 124 234 random;
#X obj 232 335 f;
#X obj 232 368 +;
#X obj 257 166 random 2;
#X obj 124 275 t f f;
#X obj 124 351 t b f;
#X obj 124 297 *;
#X obj 257 188 sel 0 1;
#X msg 257 280 -1;
#X msg 335 280 1;
#X obj 124 149 t b b b;
#X obj 124 123 r NUDGE!;
#X obj 157 193 r NUDGE-RANGE;
#X obj 247 308 inlet;
#X obj 232 397 outlet;
#X connect 0 0 4 0;
#X connect 1 0 2 0;
#X connect 2 0 14 0;
#X connect 3 0 7 0;
#X connect 4 0 6 0;
#X connect 5 0 2 0;
#X connect 5 1 2 1;
#X connect 6 0 5 0;
#X connect 7 0 8 0;
#X connect 7 1 9 0;
#X connect 8 0 6 1;
#X connect 9 0 6 1;
#X connect 10 0 0 0;
#X connect 10 1 1 0;
#X connect 10 2 3 0;
#X connect 11 0 10 0;
#X connect 12 0 0 1;
#X connect 13 0 1 1;
#X restore 413 45 pd param-nudge;
#N canvas 0 50 484 497 param-nudge 0;
#X obj 124 234 random;
#X obj 232 335 f;
#X obj 232 368 +;
#X obj 257 166 random 2;
#X obj 124 275 t f f;
#X obj 124 351 t b f;
#X obj 124 297 *;
#X obj 257 188 sel 0 1;
#X msg 257 280 -1;
#X msg 335 280 1;
#X obj 124 149 t b b b;
#X obj 124 123 r NUDGE!;
#X obj 157 193 r NUDGE-RANGE;
#X obj 247 308 inlet;
#X obj 232 397 outlet;
#X connect 0 0 4 0;
#X connect 1 0 2 0;
#X connect 2 0 14 0;
#X connect 3 0 7 0;
#X connect 4 0 6 0;
#X connect 5 0 2 0;
#X connect 5 1 2 1;
#X connect 6 0 5 0;
#X connect 7 0 8 0;
#X connect 7 1 9 0;
#X connect 8 0 6 1;
#X connect 9 0 6 1;
#X connect 10 0 0 0;
#X connect 10 1 1 0;
#X connect 10 2 3 0;
#X connect 11 0 10 0;
#X connect 12 0 0 1;
#X connect 13 0 1 1;
#X restore 21 326 pd param-nudge;
#X obj 23 157 clip 0 127;
#X obj 211 67 clip 0 127;
#X obj 413 67 clip 0 127;
#X obj 23 249 s \$0-sampler-pitch-r;
#X obj 211 139 s \$0-sampler-length-r;
#X obj 413 139 s \$0-sampler-start-r;
#X obj 21 397 s \$0-sampler-pitch-att-r;
#X obj 21 348 clip 0 127;
#N canvas 0 50 484 497 param-nudge 0;
#X obj 124 234 random;
#X obj 232 335 f;
#X obj 232 368 +;
#X obj 257 166 random 2;
#X obj 124 275 t f f;
#X obj 124 351 t b f;
#X obj 124 297 *;
#X obj 257 188 sel 0 1;
#X msg 257 280 -1;
#X msg 335 280 1;
#X obj 124 149 t b b b;
#X obj 124 123 r NUDGE!;
#X obj 157 193 r NUDGE-RANGE;
#X obj 247 308 inlet;
#X obj 232 397 outlet;
#X connect 0 0 4 0;
#X connect 1 0 2 0;
#X connect 2 0 14 0;
#X connect 3 0 7 0;
#X connect 4 0 6 0;
#X connect 5 0 2 0;
#X connect 5 1 2 1;
#X connect 6 0 5 0;
#X connect 7 0 8 0;
#X connect 7 1 9 0;
#X connect 8 0 6 1;
#X connect 9 0 6 1;
#X connect 10 0 0 0;
#X connect 10 1 1 0;
#X connect 10 2 3 0;
#X connect 11 0 10 0;
#X connect 12 0 0 1;
#X connect 13 0 1 1;
#X restore 211 326 pd param-nudge;
#X obj 211 348 clip 0 127;
#N canvas 0 50 484 497 param-nudge 0;
#X obj 124 234 random;
#X obj 232 335 f;
#X obj 232 368 +;
#X obj 257 166 random 2;
#X obj 124 275 t f f;
#X obj 124 351 t b f;
#X obj 124 297 *;
#X obj 257 188 sel 0 1;
#X msg 257 280 -1;
#X msg 335 280 1;
#X obj 124 149 t b b b;
#X obj 124 123 r NUDGE!;
#X obj 157 193 r NUDGE-RANGE;
#X obj 247 308 inlet;
#X obj 232 397 outlet;
#X connect 0 0 4 0;
#X connect 1 0 2 0;
#X connect 2 0 14 0;
#X connect 3 0 7 0;
#X connect 4 0 6 0;
#X connect 5 0 2 0;
#X connect 5 1 2 1;
#X connect 6 0 5 0;
#X connect 7 0 8 0;
#X connect 7 1 9 0;
#X connect 8 0 6 1;
#X connect 9 0 6 1;
#X connect 10 0 0 0;
#X connect 10 1 1 0;
#X connect 10 2 3 0;
#X connect 11 0 10 0;
#X connect 12 0 0 1;
#X connect 13 0 1 1;
#X restore 411 326 pd param-nudge;
#X obj 411 348 clip 0 127;
#X obj 211 397 s \$0-sampler-length-att-r;
#X obj 411 397 s \$0-sampler-start-att-r;
#X obj 23 22 r \$0-sampler-pitch-s;
#X obj 211 22 r \$0-sampler-length-s;
#X obj 413 22 r \$0-sampler-start-s;
#X obj 21 303 r \$0-sampler-pitch-att-s;
#X obj 211 303 r \$0-sampler-length-att-s;
#X obj 411 303 r \$0-sampler-start-att-s;
#X obj 23 178 / 127;
#X obj 23 200 * 4;
#X obj 23 222 - 2;
#X obj 23 49 + 2;
#X obj 23 71 / 4;
#X obj 23 93 * 127;
#X text 58 221 Scale back to -2 - 2;
#X text 72 92 Scale to 0 - 127;
#X connect 0 0 4 0;
#X connect 1 0 5 0;
#X connect 2 0 6 0;
#X connect 3 0 11 0;
#X connect 4 0 24 0;
#X connect 5 0 8 0;
#X connect 6 0 9 0;
#X connect 11 0 10 0;
#X connect 12 0 13 0;
#X connect 13 0 16 0;
#X connect 14 0 15 0;
#X connect 15 0 17 0;
#X connect 18 0 27 0;
#X connect 19 0 1 0;
#X connect 20 0 2 0;
#X connect 21 0 3 0;
#X connect 22 0 12 0;
#X connect 23 0 14 0;
#X connect 24 0 25 0;
#X connect 25 0 26 0;
#X connect 26 0 7 0;
#X connect 27 0 28 0;
#X connect 28 0 29 0;
#X connect 29 0 0 0;
#X restore 564 186 pd parameter-nudging-system;
#X obj 110 283 hsl 128 15 0 127 0 1 \$0-sampler-length-att-s \$0-sampler-length-att-r
LENGTH 133 7 0 10 -158136 -1 -1 0 1;
#X obj 110 298 hsl 128 15 0 127 0 1 \$0-sampler-start-att-s \$0-sampler-start-att-r
START 133 7 0 10 -158136 -1 -1 3800 1;
#X obj 110 268 hsl 128 15 0 127 0 1 \$0-sampler-pitch-att-s \$0-sampler-pitch-att-r
PITCH 133 7 0 10 -158136 -1 -1 100 1;
#X obj 183 134 bng 15 250 50 0 \$0-refresh-list empty REFRESH_LIST
17 7 0 10 -262144 -1 -1;
#X symbolatom 106 173 30 0 0 0 - #0-sample-name -;
#X obj -29 99 r \$0-randomize;
#X connect 1 0 126 0;
#X connect 2 0 6 0;
#X connect 3 0 4 0;
#X connect 3 0 122 0;
#X connect 4 0 5 0;
#X connect 5 0 9 0;
#X connect 6 0 123 0;
#X connect 7 0 1 0;
#X connect 8 0 1 0;
#X connect 9 0 2 0;
#X connect 11 0 3 0;
#X connect 12 0 13 0;
#X connect 13 0 20 0;
#X connect 14 0 18 0;
#X connect 15 0 23 0;
#X connect 15 1 14 1;
#X connect 20 0 15 0;
#X connect 20 1 19 0;
#X connect 22 0 24 0;
#X connect 23 0 14 0;
#X connect 24 0 23 0;
#X connect 32 0 56 2;
#X connect 33 0 56 3;
#X connect 34 0 56 4;
#X connect 35 0 56 5;
#X connect 36 0 56 6;
#X connect 37 0 56 7;
#X connect 38 0 56 1;
#X connect 39 0 56 8;
#X connect 40 0 56 0;
#X connect 45 0 46 0;
#X connect 47 0 48 0;
#X connect 47 0 51 0;
#X connect 50 0 49 0;
#X connect 53 0 44 0;
#X connect 53 0 60 0;
#X connect 54 0 53 0;
#X connect 55 0 44 0;
#X connect 57 0 58 0;
#X connect 58 0 59 0;
#X connect 62 0 89 0;
#X connect 62 0 90 0;
#X connect 63 0 64 0;
#X connect 64 0 75 0;
#X connect 65 0 72 0;
#X connect 65 0 97 0;
#X connect 72 0 63 0;
#X connect 75 0 62 0;
#X connect 76 0 113 0;
#X connect 77 0 62 1;
#X connect 79 0 65 0;
#X connect 79 0 97 1;
#X connect 80 0 79 0;
#X connect 81 0 80 1;
#X connect 83 0 86 1;
#X connect 84 0 79 1;
#X connect 85 0 86 0;
#X connect 86 0 80 0;
#X connect 87 0 63 1;
#X connect 88 0 64 1;
#X connect 89 0 71 0;
#X connect 90 0 78 0;
#X connect 91 0 104 0;
#X connect 92 0 65 1;
#X connect 93 0 94 0;
#X connect 94 0 72 1;
#X connect 96 0 97 2;
#X connect 96 1 93 0;
#X connect 97 0 72 1;
#X connect 97 1 108 0;
#X connect 97 1 112 0;
#X connect 97 1 114 0;
#X connect 99 0 103 0;
#X connect 99 1 92 0;
#X connect 99 2 100 0;
#X connect 100 0 98 0;
#X connect 101 0 98 0;
#X connect 103 0 101 0;
#X connect 104 0 99 0;
#X connect 104 1 94 0;
#X connect 107 0 96 0;
#X connect 108 0 109 0;
#X connect 109 0 110 0;
#X connect 113 0 81 0;
#X connect 119 0 3 0;
#X connect 124 0 7 0;
#X connect 125 0 8 0;
#X connect 126 0 12 0;
#X connect 133 0 1 0;
#X coords 0 -1 1 1 220 255 2 100 100;
